<svg width="520" height="120" viewBox="0 0 520 120" fill="none" xmlns="http://www.w3.org/2000/svg" role="img" aria-labelledby="title desc">
  <title id="title">HIREZY Logo</title>
  <desc id="desc">Horizontal logo for HIREZY with resume matching icon and wordmark.</desc>
  <defs>
    <linearGradient id="g-main" x1="18" y1="16" x2="108" y2="106" gradientUnits="userSpaceOnUse">
      <stop stop-color="#0B63F6"/>
      <stop offset="0.55" stop-color="#1199F4"/>
      <stop offset="1" stop-color="#22D3EE"/>
    </linearGradient>
    <linearGradient id="g-pro" x1="395" y1="26" x2="510" y2="94" gradientUnits="userSpaceOnUse">
      <stop stop-color="#0B63F6"/>
      <stop offset="1" stop-color="#22D3EE"/>
    </linearGradient>
    <filter id="soft-shadow" x="0" y="0" width="132" height="132" filterUnits="userSpaceOnUse" color-interpolation-filters="sRGB">
      <feDropShadow dx="0" dy="8" stdDeviation="8" flood-color="#0B63F6" flood-opacity="0.12"/>
    </filter>
  </defs>

  <g filter="url(#soft-shadow)">
    <rect x="14" y="14" width="92" height="92" rx="26" fill="#F4FBFF"/>
    <path d="M36 26H72L88 42V82C88 87.52 83.52 92 78 92H36C30.48 92 26 87.52 26 82V36C26 30.48 30.48 26 36 26Z" fill="white" stroke="url(#g-main)" stroke-width="6" stroke-linejoin="round"/>
    <path d="M72 26V38C72 40.21 73.79 42 76 42H88" stroke="url(#g-main)" stroke-width="6" stroke-linecap="round" stroke-linejoin="round"/>
    <circle cx="47" cy="46" r="7" fill="url(#g-main)"/>
    <path d="M35 64C35 57.37 40.37 52 47 52C53.63 52 59 57.37 59 64V66H35V64Z" fill="url(#g-main)"/>
    <rect x="62" y="51" width="18" height="5" rx="2.5" fill="#B7C9EF"/>
    <circle cx="40" cy="76" r="3" fill="#0B63F6"/>
    <rect x="48" y="73" width="23" height="5" rx="2.5" fill="#B7C9EF"/>
    <path d="M88 48H99L106 41" stroke="#16C7E6" stroke-width="4" stroke-linecap="round" stroke-linejoin="round"/>
    <path d="M88 59H101" stroke="#16C7E6" stroke-width="4" stroke-linecap="round"/>
    <circle cx="108" cy="39" r="4" fill="white" stroke="#16C7E6" stroke-width="3"/>
    <circle cx="105" cy="59" r="4" fill="white" stroke="#16C7E6" stroke-width="3"/>
    <circle cx="76" cy="78" r="16" fill="white" stroke="url(#g-main)" stroke-width="6"/>
    <path d="M68 78L74 84L86 71" stroke="#0B63F6" stroke-width="5" stroke-linecap="round" stroke-linejoin="round"/>
    <path d="M88 90L101 103" stroke="#0B63F6" stroke-width="7" stroke-linecap="round"/>
  </g>

  <text x="135" y="73" fill="#071B4D" font-family="Inter, Poppins, Segoe UI, Arial, sans-serif" font-size="48" font-weight="800" letter-spacing="-1">HIREZY</text>
</svg>
